<svg width="238" height="47" viewBox="0 0 238 47" fill="none" xmlns="http://www.w3.org/2000/svg">
<path d="M7.73984 13.7957V36.1561C7.73984 37.292 6.0074 38.2126 3.86992 38.2126C1.73243 38.2126 0 37.292 0 36.1561V13.7957C0 12.6598 1.73243 11.7391 3.86992 11.7391C6.0074 11.7391 7.73984 12.6598 7.73984 13.7957Z" fill="#AA81B3"/>
<path d="M24.1869 2.05656V44.9434C24.1869 46.0793 22.4544 47 20.3169 47C18.1795 47 16.447 46.0793 16.447 44.9434V2.05656C16.447 0.920656 18.1795 0 20.3169 0C22.4544 0 24.1869 0.920656 24.1869 2.05656Z" fill="#AA81B3"/>
<path d="M238 4.57489V36.6431C238 37.4925 236.268 38.1809 234.13 38.1809C231.993 38.1809 230.26 37.4925 230.26 36.6431V4.57489C230.26 3.72553 231.993 3.03712 234.13 3.03712C236.268 3.03712 238 3.72553 238 4.57489Z" fill="#AA81B3"/>
<path d="M89.9757 2.05656V44.9434C89.9757 46.0793 88.2432 47 86.1058 47C83.9683 47 82.2358 46.0793 82.2358 44.9434V2.05656C82.2358 0.920656 83.9683 0 86.1058 0C88.2432 0 89.9757 0.920656 89.9757 2.05656Z" fill="#AA81B3"/>
<path d="M40.6341 23.4087V29.8263C40.6341 30.9622 38.9017 31.8828 36.7642 31.8828C34.6267 31.8828 32.8943 30.9622 32.8943 29.8263V23.4087C32.8943 22.2728 34.6267 21.3521 36.7642 21.3521C38.9017 21.3521 40.6341 22.2728 40.6341 23.4087Z" fill="#AA81B3"/>
<path d="M106.423 23.4757V29.7593C106.423 30.8952 104.69 31.8159 102.553 31.8159C100.415 31.8159 98.683 30.8952 98.683 29.7593V23.4757C98.683 22.3397 100.415 21.4191 102.553 21.4191C104.69 21.4191 106.423 22.3397 106.423 23.4757Z" fill="#AA81B3"/>
<path d="M57.0811 7.66955V39.6636C57.0811 40.7995 55.3487 41.7202 53.2112 41.7202C51.0737 41.7202 49.3413 40.7995 49.3413 39.6636V7.66955C49.3413 6.53364 51.0737 5.61298 53.2112 5.61298C55.3487 5.61298 57.0811 6.53364 57.0811 7.66955Z" fill="#AA81B3"/>
<path d="M122.87 8.2054V39.1182C122.87 40.2541 121.138 41.1748 119 41.1748C116.863 41.1748 115.13 40.2541 115.13 39.1182V8.2054C115.13 7.06949 116.863 6.14883 119 6.14883C121.138 6.14883 122.87 7.06949 122.87 8.2054Z" fill="#AA81B3"/>
<path d="M73.5283 16.6509V29.8454C73.5283 30.9813 71.7959 31.902 69.6584 31.902C67.5209 31.902 65.7885 30.9813 65.7885 29.8454V16.6509C65.7885 15.515 67.5209 14.5943 69.6584 14.5943C71.7959 14.5943 73.5283 15.515 73.5283 16.6509Z" fill="#AA81B3"/>
<path d="M139.317 2.05656V44.9434C139.317 46.0793 137.585 47 135.447 47C133.31 47 131.577 46.0793 131.577 44.9434V2.05656C131.577 0.920656 133.31 0 135.447 0C137.585 0 139.317 0.920656 139.317 2.05656Z" fill="#AA81B3"/>
<path d="M155.764 18.3491V35.7332C155.764 36.8691 154.032 37.7897 151.894 37.7897C149.757 37.7897 148.024 36.8691 148.024 35.7332V18.3491C148.024 17.2132 149.757 16.2925 151.894 16.2925C154.032 16.2925 155.764 17.2132 155.764 18.3491Z" fill="#AA81B3"/>
<path d="M221.553 2.47759V44.5416C221.553 45.6775 219.82 46.5981 217.683 46.5981C215.545 46.5981 213.813 45.6775 213.813 44.5416V2.47759C213.813 1.34168 215.545 0.421028 217.683 0.421028C219.82 0.421028 221.553 1.34168 221.553 2.47759Z" fill="#AA81B3"/>
<path d="M172.211 2.48716V44.5511C172.211 45.687 170.479 46.6077 168.341 46.6077C166.204 46.6077 164.472 45.687 164.472 44.5511V2.48716C164.472 1.35125 166.204 0.430595 168.341 0.430595C170.479 0.430595 172.211 1.35125 172.211 2.48716Z" fill="#AA81B3"/>
<path d="M188.659 23.2269V30.0081C188.659 31.144 186.926 32.0646 184.789 32.0646C182.651 32.0646 180.919 31.144 180.919 30.0081V23.2269C180.919 22.0909 182.651 21.1703 184.789 21.1703C186.926 21.1703 188.659 22.0909 188.659 23.2269Z" fill="#AA81B3"/>
<path d="M205.106 8.2054V39.1182C205.106 40.2541 203.373 41.1748 201.236 41.1748C199.098 41.1748 197.366 40.2541 197.366 39.1182V8.2054C197.366 7.06949 199.098 6.14883 201.236 6.14883C203.373 6.14883 205.106 7.06949 205.106 8.2054Z" fill="#AA81B3"/>
</svg>
