<svg width="176" height="156" viewBox="0 0 176 156" fill="none" xmlns="http://www.w3.org/2000/svg">
<g clip-path="url(#clip0_42_26)">
<path d="M157.455 43.0805L163.79 115.492C164.134 119.44 163.167 123.39 161.037 126.732C158.907 130.073 155.735 132.618 152.011 133.973C148.288 135.327 144.221 135.415 140.443 134.223C136.664 133.031 133.384 130.626 131.112 127.38C128.84 124.134 127.702 120.229 127.875 116.27C128.048 112.312 129.523 108.521 132.07 105.486C134.617 102.451 138.094 100.341 141.962 99.4837C145.831 98.6262 149.874 99.0691 153.465 100.744L149.393 54.2024L96.2709 66.5924L101.814 129.949C102.158 133.896 101.191 137.847 99.0612 141.188C96.9316 144.529 93.7591 147.075 90.0356 148.429C86.312 149.784 82.2456 149.872 78.4669 148.68C74.6882 147.488 71.4084 145.082 69.1362 141.836C66.8639 138.59 65.7261 134.686 65.8993 130.727C66.0724 126.769 67.5468 122.978 70.0939 119.943C72.641 116.908 76.1183 114.798 79.9866 113.94C83.855 113.083 87.8982 113.526 91.4892 115.2L86.6251 59.6035L157.455 43.0805Z" fill="#471A51"/>
</g>
<path fill-rule="evenodd" clip-rule="evenodd" d="M50.881 17.5C49.7732 17.5267 48.72 17.9868 47.9476 18.7814C47.1752 19.576 46.7452 20.6419 46.75 21.75V70.7737C43.5092 68.9027 39.7416 68.1532 36.0315 68.6416C32.3214 69.1299 28.8761 70.8288 26.2299 73.4747C23.5836 76.1206 21.8844 79.5658 21.3956 83.2758C20.9069 86.9859 21.6559 90.7535 23.5266 93.9945C25.3973 97.2355 28.2851 99.7687 31.7422 101.201C35.1992 102.634 39.0324 102.886 42.6472 101.918C46.2619 100.95 49.4563 98.8161 51.735 95.8478C54.0136 92.8794 55.2492 89.2421 55.25 85.5V43.765L75.803 47.1905C76.4116 47.2917 77.0349 47.2591 77.6296 47.0952C78.2243 46.9312 78.7763 46.6397 79.247 46.241C79.7177 45.8422 80.096 45.3457 80.3556 44.7861C80.6151 44.2264 80.7497 43.6169 80.75 43V26C80.7495 24.994 80.3922 24.0208 79.7416 23.2535C79.0911 22.4861 78.1894 21.9745 77.197 21.8095L51.7777 17.5723C51.4822 17.5165 51.1816 17.4923 50.881 17.5Z" fill="#471A51"/>
<path d="M122.777 30.396V6.375C122.777 5.81141 123.001 5.27091 123.4 4.8724C123.798 4.47388 124.339 4.25 124.902 4.25H124.962C125.525 4.25 126.066 4.47388 126.464 4.8724C126.863 5.27091 127.087 5.81141 127.087 6.375V36.2631C127.505 40.4473 124.069 44.7419 118.855 46.2357C113.138 47.8762 107.448 45.5281 106.147 40.9913C104.847 36.4544 108.427 31.4479 114.146 29.8074C117.269 28.9128 120.382 29.206 122.777 30.396ZM117.677 42.1281C121.286 41.0933 123.298 38.2819 122.714 36.2419C122.127 34.1998 118.931 32.8801 115.323 33.915C111.715 34.9499 109.702 37.7613 110.287 39.8034C110.873 41.8434 114.069 43.163 117.677 42.1281Z" fill="#471A51"/>
<defs>
<clipPath id="clip0_42_26">
<rect width="108" height="108" fill="white" transform="translate(58.4991 47.9119) rotate(-5)"/>
</clipPath>
</defs>
</svg>
