<svg width="12" height="12" viewBox="0 0 12 12" fill="none" xmlns="http://www.w3.org/2000/svg">
<path d="M11 1V11.2015Z" fill="white"/>
<path d="M11 1V11.2015" stroke="white" stroke-width="1.5" stroke-linecap="round" stroke-linejoin="round"/>
<path d="M0.958023 0.113009C0.870843 0.0518915 0.766019 0.0138 0.655562 0.0031001C0.545106 -0.0075998 0.433485 0.00952456 0.333492 0.0525107C0.2335 0.0954968 0.149181 0.162606 0.0901985 0.246147C0.0312157 0.329688 -4.42512e-05 0.426281 0 0.524858V11.476C0.000140768 11.5745 0.0315354 11.671 0.0905914 11.7544C0.149647 11.8378 0.233979 11.9048 0.333937 11.9477C0.433894 11.9906 0.545439 12.0076 0.655807 11.9969C0.766176 11.9861 0.870909 11.9481 0.958023 11.887L8.77498 6.41229C8.84512 6.36318 8.90181 6.30061 8.94078 6.22928C8.97975 6.15795 9 6.07971 9 6.00044C9 5.92117 8.97975 5.84293 8.94078 5.7716C8.90181 5.70026 8.84512 5.6377 8.77498 5.58859L0.958023 0.113009Z" fill="white"/>
</svg>
