<svg width="16" height="16" viewBox="0 0 16 16" fill="none" xmlns="http://www.w3.org/2000/svg">
<path d="M2 3.002C2.00001 2.8186 2.05045 2.63874 2.1458 2.48208C2.24116 2.32543 2.37776 2.19801 2.54067 2.11377C2.70357 2.02953 2.88651 1.99171 3.06946 2.00445C3.25241 2.01719 3.42834 2.08 3.578 2.186L10.578 7.149C10.708 7.24095 10.8142 7.36262 10.8877 7.50389C10.9612 7.64516 11 7.80195 11.0006 7.9612C11.0013 8.12045 10.964 8.27756 10.8917 8.41946C10.8194 8.56136 10.7142 8.68394 10.585 8.777L3.585 13.814C3.43567 13.9217 3.25949 13.9861 3.0759 14.0001C2.8923 14.0141 2.70841 13.9771 2.54449 13.8932C2.38058 13.8093 2.243 13.6818 2.14692 13.5248C2.05085 13.3677 2.00001 13.1871 2 13.003V3.002ZM14 2.5C14 2.36739 13.9473 2.24021 13.8536 2.14645C13.7598 2.05268 13.6326 2 13.5 2C13.3674 2 13.2402 2.05268 13.1464 2.14645C13.0527 2.24021 13 2.36739 13 2.5V13.5C13 13.6326 13.0527 13.7598 13.1464 13.8536C13.2402 13.9473 13.3674 14 13.5 14C13.6326 14 13.7598 13.9473 13.8536 13.8536C13.9473 13.7598 14 13.6326 14 13.5V2.5Z" fill="white"/>
</svg>
