<svg width="13" height="14" viewBox="0 0 13 14" fill="none" xmlns="http://www.w3.org/2000/svg">
<path d="M1.77119 1.0667C1.69365 1.02376 1.60533 1.00075 1.51518 1.00002C1.42504 0.999283 1.3363 1.02084 1.25797 1.06251C1.17964 1.10418 1.11451 1.16447 1.0692 1.23726C1.02389 1.31005 1.00002 1.39274 1 1.47693V12.5231C1.00002 12.6073 1.02389 12.69 1.0692 12.7627C1.11451 12.8355 1.17964 12.8958 1.25797 12.9375C1.3363 12.9792 1.42504 13.0007 1.51518 13C1.60533 12.9992 1.69365 12.9762 1.77119 12.9333L11.7499 7.41023C11.8261 7.368 11.8892 7.30797 11.9331 7.23604C11.9769 7.16412 12 7.08277 12 7C12 6.91723 11.9769 6.83589 11.9331 6.76396C11.8892 6.69203 11.8261 6.632 11.7499 6.58977L1.77119 1.0667Z" fill="white" stroke="white" stroke-width="1.5" stroke-linecap="round" stroke-linejoin="round"/>
</svg>
