<svg width="20" height="20" viewBox="0 0 20 20" fill="none" xmlns="http://www.w3.org/2000/svg">
<path d="M4.8413 3.07782C4.75671 3.02772 4.66036 3.00088 4.56202 3.00002C4.46368 2.99916 4.36687 3.02432 4.28142 3.07293C4.19597 3.12154 4.12492 3.19188 4.07549 3.2768C4.02606 3.36172 4.00002 3.4582 4 3.55642V16.4436C4.00002 16.5418 4.02606 16.6383 4.07549 16.7232C4.12492 16.8081 4.19597 16.8785 4.28142 16.9271C4.36687 16.9757 4.46368 17.0008 4.56202 17C4.66036 16.9991 4.75671 16.9723 4.8413 16.9222L15.7272 10.4786C15.8103 10.4293 15.8792 10.3593 15.927 10.2754C15.9748 10.1915 16 10.0966 16 10C16 9.90344 15.9748 9.80853 15.927 9.72462C15.8792 9.64071 15.8103 9.57067 15.7272 9.52139L4.8413 3.07782Z" fill="white" stroke="white" stroke-width="1.5" stroke-linecap="round" stroke-linejoin="round"/>
</svg>
