<svg width="12" height="12" viewBox="0 0 12 12" fill="none" xmlns="http://www.w3.org/2000/svg">
<path d="M1 1V11.2015Z" fill="white"/>
<path d="M1 1V11.2015" stroke="white" stroke-width="1.5" stroke-linecap="round" stroke-linejoin="round"/>
<path d="M11.042 0.113009C11.1292 0.0518915 11.234 0.0138 11.3444 0.0031001C11.4549 -0.0075998 11.5665 0.00952456 11.6665 0.0525107C11.7665 0.0954968 11.8508 0.162606 11.9098 0.246147C11.9688 0.329688 12 0.426281 12 0.524858V11.476C11.9999 11.5745 11.9685 11.671 11.9094 11.7544C11.8504 11.8378 11.766 11.9048 11.6661 11.9477C11.5661 11.9906 11.4546 12.0076 11.3442 11.9969C11.2338 11.9861 11.1291 11.9481 11.042 11.887L3.22502 6.41229C3.15488 6.36318 3.09819 6.30061 3.05922 6.22928C3.02025 6.15795 3 6.07971 3 6.00044C3 5.92117 3.02025 5.84293 3.05922 5.7716C3.09819 5.70026 3.15488 5.6377 3.22502 5.58859L11.042 0.113009Z" fill="white"/>
</svg>
