<svg width="24" height="24" viewBox="0 0 24 24" fill="none" xmlns="http://www.w3.org/2000/svg">
<path d="M6 7.03752V17.239Z" fill="white"/>
<path d="M6 7.03752V17.239" stroke="white" stroke-width="1.5" stroke-linecap="round" stroke-linejoin="round"/>
<path d="M17.028 5.2696C17.1164 5.1983 17.2228 5.15386 17.3348 5.14137C17.4469 5.12889 17.5601 5.14887 17.6616 5.19902C17.763 5.24917 17.8486 5.32746 17.9084 5.42493C17.9683 5.52239 18 5.63508 18 5.75009V18.5264C17.9998 18.6414 17.968 18.7539 17.908 18.8512C17.8481 18.9485 17.7626 19.0267 17.6611 19.0767C17.5597 19.1267 17.4466 19.1466 17.3346 19.1341C17.2226 19.1216 17.1163 19.0772 17.028 19.0059L9.09696 12.6188C9.02579 12.5615 8.96828 12.4885 8.92874 12.4052C8.8892 12.322 8.86865 12.2307 8.86865 12.1383C8.86865 12.0458 8.8892 11.9545 8.92874 11.8713C8.96828 11.7881 9.02579 11.7151 9.09696 11.6578L17.028 5.2696Z" fill="white" stroke="white" stroke-width="1.5" stroke-linecap="round" stroke-linejoin="round"/>
</svg>
