<svg width="30" height="30" viewBox="0 0 30 30" fill="none" xmlns="http://www.w3.org/2000/svg">
<path d="M28.7072 30L17.2404 18.5346C16.3248 19.3146 15.2719 19.9182 14.0817 20.3454C12.8914 20.7727 11.6951 20.9863 10.4926 20.9863C7.56028 20.9863 5.07844 19.9713 3.04706 17.9414C1.01569 15.9115 0 13.4306 0 10.4986C0 7.56668 1.01447 5.08453 3.0434 3.05219C5.07233 1.01984 7.55295 0.00244565 10.4853 4.39075e-06C13.4176 -0.00243687 15.9006 1.01313 17.9344 3.04669C19.9683 5.08026 20.9852 7.56241 20.9852 10.4931C20.9852 11.765 20.7599 12.996 20.3095 14.1861C19.859 15.3763 19.2669 16.3943 18.5332 17.2402L30 28.7037L28.7072 30ZM10.4944 19.1535C12.9238 19.1535 14.9747 18.3174 16.6471 16.6451C18.3196 14.9728 19.1558 12.9216 19.1558 10.4913C19.1558 8.06103 18.3196 6.01038 16.6471 4.33934C14.9747 2.6683 12.9238 1.83217 10.4944 1.83095C8.06507 1.82973 6.01355 2.66586 4.33986 4.33934C2.66618 6.01282 1.82995 8.06348 1.83117 10.4913C1.83239 12.9191 2.66862 14.9698 4.33986 16.6433C6.01111 18.3168 8.06202 19.1529 10.4926 19.1517" fill="white"/>
</svg>
