<svg width="379" height="113" viewBox="0 0 379 113" fill="none" xmlns="http://www.w3.org/2000/svg">
<path d="M44.1545 52.675V61H12.392V6.775H22.4795V52.675H44.1545ZM61.4818 61H51.3568V6.775H61.4818V61ZM102.497 16.6375C102.197 17.1625 101.872 17.55 101.522 17.8C101.197 18.025 100.785 18.1375 100.285 18.1375C99.76 18.1375 99.185 17.95 98.56 17.575C97.96 17.175 97.235 16.7375 96.385 16.2625C95.535 15.7875 94.535 15.3625 93.385 14.9875C92.26 14.5875 90.9225 14.3875 89.3725 14.3875C87.9725 14.3875 86.7475 14.5625 85.6975 14.9125C84.6475 15.2375 83.76 15.7 83.035 16.3C82.335 16.9 81.81 17.625 81.46 18.475C81.11 19.3 80.935 20.2125 80.935 21.2125C80.935 22.4875 81.285 23.55 81.985 24.4C82.71 25.25 83.66 25.975 84.835 26.575C86.01 27.175 87.3475 27.7125 88.8475 28.1875C90.3475 28.6625 91.885 29.175 93.46 29.725C95.035 30.25 96.5725 30.875 98.0725 31.6C99.5725 32.3 100.91 33.2 102.085 34.3C103.26 35.375 104.197 36.7 104.897 38.275C105.622 39.85 105.985 41.7625 105.985 44.0125C105.985 46.4625 105.56 48.7625 104.71 50.9125C103.885 53.0375 102.66 54.9 101.035 56.5C99.435 58.075 97.4725 59.325 95.1475 60.25C92.8225 61.15 90.16 61.6 87.16 61.6C85.435 61.6 83.735 61.425 82.06 61.075C80.385 60.75 78.7725 60.275 77.2225 59.65C75.6975 59.025 74.26 58.275 72.91 57.4C71.56 56.525 70.36 55.55 69.31 54.475L72.2725 49.6375C72.5225 49.2875 72.8475 49 73.2475 48.775C73.6475 48.525 74.0725 48.4 74.5225 48.4C75.1475 48.4 75.8225 48.6625 76.5475 49.1875C77.2725 49.6875 78.135 50.25 79.135 50.875C80.135 51.5 81.2975 52.075 82.6225 52.6C83.9725 53.1 85.585 53.35 87.46 53.35C90.335 53.35 92.56 52.675 94.135 51.325C95.71 49.95 96.4975 47.9875 96.4975 45.4375C96.4975 44.0125 96.135 42.85 95.41 41.95C94.71 41.05 93.7725 40.3 92.5975 39.7C91.4225 39.075 90.085 38.55 88.585 38.125C87.085 37.7 85.56 37.2375 84.01 36.7375C82.46 36.2375 80.935 35.6375 79.435 34.9375C77.935 34.2375 76.5975 33.325 75.4225 32.2C74.2475 31.075 73.2975 29.675 72.5725 28C71.8725 26.3 71.5225 24.2125 71.5225 21.7375C71.5225 19.7625 71.91 17.8375 72.685 15.9625C73.485 14.0875 74.635 12.425 76.135 10.975C77.635 9.525 79.485 8.3625 81.685 7.4875C83.885 6.6125 86.41 6.175 89.26 6.175C92.46 6.175 95.41 6.675 98.11 7.675C100.81 8.675 103.11 10.075 105.01 11.875L102.497 16.6375ZM152.66 15.0625H136.31V61H126.222V15.0625H109.872V6.775H152.66V15.0625ZM169.88 14.8V29.8375H188.855V37.6H169.88V52.9375H193.955V61H159.755V6.775H193.955V14.8H169.88ZM248.607 6.775V61H243.432C242.632 61 241.957 60.875 241.407 60.625C240.882 60.35 240.37 59.9 239.87 59.275L211.557 23.125C211.707 24.775 211.782 26.3 211.782 27.7V61H202.895V6.775H208.182C208.607 6.775 208.97 6.8 209.27 6.85C209.595 6.875 209.87 6.95 210.095 7.075C210.345 7.175 210.582 7.3375 210.807 7.5625C211.032 7.7625 211.282 8.0375 211.557 8.3875L239.982 44.6875C239.907 43.8125 239.845 42.95 239.795 42.1C239.745 41.25 239.72 40.4625 239.72 39.7375V6.775H248.607Z" fill="white"/>
<path d="M20.4496 88.082C21.5136 88.082 22.4376 87.949 23.2216 87.683C24.0196 87.417 24.6706 87.053 25.1746 86.591C25.6926 86.115 26.0776 85.555 26.3296 84.911C26.5816 84.267 26.7076 83.56 26.7076 82.79C26.7076 81.25 26.1966 80.067 25.1746 79.241C24.1666 78.415 22.6196 78.002 20.5336 78.002H16.9216V88.082H20.4496ZM34.9816 104H29.8786C28.9126 104 28.2126 103.622 27.7786 102.866L21.3946 93.143C21.1566 92.779 20.8906 92.52 20.5966 92.366C20.3166 92.212 19.8966 92.135 19.3366 92.135H16.9216V104H11.2726V73.634H20.5336C22.5916 73.634 24.3556 73.851 25.8256 74.285C27.3096 74.705 28.5206 75.3 29.4586 76.07C30.4106 76.84 31.1106 77.764 31.5586 78.842C32.0066 79.906 32.2306 81.082 32.2306 82.37C32.2306 83.392 32.0766 84.358 31.7686 85.268C31.4746 86.178 31.0406 87.004 30.4666 87.746C29.9066 88.488 29.2066 89.139 28.3666 89.699C27.5406 90.259 26.5956 90.7 25.5316 91.022C25.8956 91.232 26.2316 91.484 26.5396 91.778C26.8476 92.058 27.1276 92.394 27.3796 92.786L34.9816 104ZM43.9309 104H38.2609V73.634H43.9309V104ZM75.7616 88.775V101.06C74.2216 102.194 72.5766 103.027 70.8266 103.559C69.0906 104.077 67.2286 104.336 65.2406 104.336C62.7626 104.336 60.5156 103.951 58.4996 103.181C56.4976 102.411 54.7826 101.34 53.3546 99.968C51.9406 98.596 50.8486 96.958 50.0786 95.054C49.3086 93.15 48.9236 91.071 48.9236 88.817C48.9236 86.535 49.2946 84.442 50.0366 82.538C50.7786 80.634 51.8286 78.996 53.1866 77.624C54.5586 76.252 56.2176 75.188 58.1636 74.432C60.1096 73.676 62.2936 73.298 64.7156 73.298C65.9476 73.298 67.0956 73.396 68.1596 73.592C69.2376 73.788 70.2316 74.061 71.1416 74.411C72.0656 74.747 72.9056 75.16 73.6616 75.65C74.4176 76.14 75.1106 76.679 75.7406 77.267L74.1236 79.829C73.8716 80.235 73.5426 80.487 73.1366 80.585C72.7306 80.669 72.2896 80.564 71.8136 80.27C71.3516 80.004 70.8896 79.738 70.4276 79.472C69.9656 79.206 69.4476 78.975 68.8736 78.779C68.3136 78.583 67.6766 78.422 66.9626 78.296C66.2626 78.17 65.4506 78.107 64.5266 78.107C63.0286 78.107 61.6706 78.359 60.4526 78.863C59.2486 79.367 58.2196 80.088 57.3656 81.026C56.5116 81.964 55.8536 83.091 55.3916 84.407C54.9296 85.723 54.6986 87.193 54.6986 88.817C54.6986 90.553 54.9436 92.107 55.4336 93.479C55.9376 94.837 56.6376 95.992 57.5336 96.944C58.4436 97.882 59.5356 98.603 60.8096 99.107C62.0836 99.597 63.5046 99.842 65.0726 99.842C66.1926 99.842 67.1936 99.723 68.0756 99.485C68.9576 99.247 69.8186 98.925 70.6586 98.519V93.017H66.8366C66.4726 93.017 66.1856 92.919 65.9756 92.723C65.7796 92.513 65.6816 92.261 65.6816 91.967V88.775H75.7616ZM106.803 73.634V104H101.133V90.728H86.8742V104H81.2042V73.634H86.8742V86.696H101.133V73.634H106.803ZM134.776 78.275H125.62V104H119.971V78.275H110.815V73.634H134.776V78.275ZM173.29 73.634V104H170.392C169.944 104 169.566 103.93 169.258 103.79C168.964 103.636 168.677 103.384 168.397 103.034L152.542 82.79C152.626 83.714 152.668 84.568 152.668 85.352V104H147.691V73.634H150.652C150.89 73.634 151.093 73.648 151.261 73.676C151.443 73.69 151.597 73.732 151.723 73.802C151.863 73.858 151.996 73.949 152.122 74.075C152.248 74.187 152.388 74.341 152.542 74.537L168.46 94.865C168.418 94.375 168.383 93.892 168.355 93.416C168.327 92.94 168.313 92.499 168.313 92.093V73.634H173.29ZM209.011 88.817C209.011 91.043 208.64 93.108 207.898 95.012C207.17 96.902 206.134 98.54 204.79 99.926C203.446 101.312 201.829 102.397 199.939 103.181C198.049 103.951 195.949 104.336 193.639 104.336C191.343 104.336 189.25 103.951 187.36 103.181C185.47 102.397 183.846 101.312 182.488 99.926C181.144 98.54 180.101 96.902 179.359 95.012C178.617 93.108 178.246 91.043 178.246 88.817C178.246 86.591 178.617 84.533 179.359 82.643C180.101 80.739 181.144 79.094 182.488 77.708C183.846 76.322 185.47 75.244 187.36 74.474C189.25 73.69 191.343 73.298 193.639 73.298C195.179 73.298 196.628 73.48 197.986 73.844C199.344 74.194 200.59 74.698 201.724 75.356C202.858 76 203.873 76.791 204.769 77.729C205.679 78.653 206.449 79.689 207.079 80.837C207.709 81.985 208.185 83.231 208.507 84.575C208.843 85.919 209.011 87.333 209.011 88.817ZM203.236 88.817C203.236 87.151 203.012 85.66 202.564 84.344C202.116 83.014 201.479 81.887 200.653 80.963C199.827 80.039 198.819 79.332 197.629 78.842C196.453 78.352 195.123 78.107 193.639 78.107C192.155 78.107 190.818 78.352 189.628 78.842C188.452 79.332 187.444 80.039 186.604 80.963C185.778 81.887 185.141 83.014 184.693 84.344C184.245 85.66 184.021 87.151 184.021 88.817C184.021 90.483 184.245 91.981 184.693 93.311C185.141 94.627 185.778 95.747 186.604 96.671C187.444 97.581 188.452 98.281 189.628 98.771C190.818 99.261 192.155 99.506 193.639 99.506C195.123 99.506 196.453 99.261 197.629 98.771C198.819 98.281 199.827 97.581 200.653 96.671C201.479 95.747 202.116 94.627 202.564 93.311C203.012 91.981 203.236 90.483 203.236 88.817ZM253.761 73.634L244.332 104H239.229L232.593 83.252C232.411 82.748 232.243 82.132 232.089 81.404C232.005 81.754 231.921 82.083 231.837 82.391C231.753 82.699 231.662 82.986 231.564 83.252L224.865 104H219.741L210.333 73.634H215.058C215.548 73.634 215.954 73.753 216.276 73.991C216.612 74.215 216.836 74.523 216.948 74.915L222.114 93.08C222.226 93.528 222.331 94.018 222.429 94.55C222.541 95.068 222.653 95.614 222.765 96.188C222.877 95.6 222.996 95.047 223.122 94.529C223.262 94.011 223.409 93.528 223.563 93.08L229.527 74.915C229.639 74.593 229.856 74.299 230.178 74.033C230.514 73.767 230.92 73.634 231.396 73.634H233.055C233.545 73.634 233.944 73.753 234.252 73.991C234.56 74.229 234.791 74.537 234.945 74.915L240.888 93.08C241.182 93.948 241.448 94.949 241.686 96.083C241.868 94.977 242.071 93.976 242.295 93.08L247.461 74.915C247.545 74.565 247.755 74.264 248.091 74.012C248.441 73.76 248.854 73.634 249.33 73.634H253.761Z" fill="white"/>
<path d="M265.96 32.24C264.62 32.24 263.59 31.865 262.87 31.115C262.16 30.355 261.805 29.31 261.805 27.98V19.385H260.23C260.03 19.385 259.86 19.32 259.72 19.19C259.58 19.06 259.51 18.865 259.51 18.605V17.135L261.985 16.73L262.765 12.53C262.815 12.33 262.91 12.175 263.05 12.065C263.19 11.955 263.37 11.9 263.59 11.9H265.51V16.745H269.62V19.385H265.51V27.725C265.51 28.205 265.625 28.58 265.855 28.85C266.095 29.12 266.42 29.255 266.83 29.255C267.06 29.255 267.25 29.23 267.4 29.18C267.56 29.12 267.695 29.06 267.805 29C267.925 28.94 268.03 28.885 268.12 28.835C268.21 28.775 268.3 28.745 268.39 28.745C268.5 28.745 268.59 28.775 268.66 28.835C268.73 28.885 268.805 28.965 268.885 29.075L269.995 30.875C269.455 31.325 268.835 31.665 268.135 31.895C267.435 32.125 266.71 32.24 265.96 32.24ZM278.685 16.37C279.825 16.37 280.86 16.555 281.79 16.925C282.73 17.295 283.53 17.82 284.19 18.5C284.86 19.18 285.375 20.01 285.735 20.99C286.095 21.97 286.275 23.065 286.275 24.275C286.275 25.495 286.095 26.595 285.735 27.575C285.375 28.555 284.86 29.39 284.19 30.08C283.53 30.77 282.73 31.3 281.79 31.67C280.86 32.04 279.825 32.225 278.685 32.225C277.535 32.225 276.49 32.04 275.55 31.67C274.61 31.3 273.805 30.77 273.135 30.08C272.475 29.39 271.96 28.555 271.59 27.575C271.23 26.595 271.05 25.495 271.05 24.275C271.05 23.065 271.23 21.97 271.59 20.99C271.96 20.01 272.475 19.18 273.135 18.5C273.805 17.82 274.61 17.295 275.55 16.925C276.49 16.555 277.535 16.37 278.685 16.37ZM278.685 29.375C279.965 29.375 280.91 28.945 281.52 28.085C282.14 27.225 282.45 25.965 282.45 24.305C282.45 22.645 282.14 21.38 281.52 20.51C280.91 19.64 279.965 19.205 278.685 19.205C277.385 19.205 276.42 19.645 275.79 20.525C275.17 21.395 274.86 22.655 274.86 24.305C274.86 25.955 275.17 27.215 275.79 28.085C276.42 28.945 277.385 29.375 278.685 29.375ZM301.526 32.24C300.186 32.24 299.156 31.865 298.436 31.115C297.726 30.355 297.371 29.31 297.371 27.98V19.385H295.796C295.596 19.385 295.426 19.32 295.286 19.19C295.146 19.06 295.076 18.865 295.076 18.605V17.135L297.551 16.73L298.331 12.53C298.381 12.33 298.476 12.175 298.616 12.065C298.756 11.955 298.936 11.9 299.156 11.9H301.076V16.745H305.186V19.385H301.076V27.725C301.076 28.205 301.191 28.58 301.421 28.85C301.661 29.12 301.986 29.255 302.396 29.255C302.626 29.255 302.816 29.23 302.966 29.18C303.126 29.12 303.261 29.06 303.371 29C303.491 28.94 303.596 28.885 303.686 28.835C303.776 28.775 303.866 28.745 303.956 28.745C304.066 28.745 304.156 28.775 304.226 28.835C304.296 28.885 304.371 28.965 304.451 29.075L305.561 30.875C305.021 31.325 304.401 31.665 303.701 31.895C303.001 32.125 302.276 32.24 301.526 32.24ZM311.264 18.26C311.864 17.7 312.524 17.245 313.244 16.895C313.964 16.545 314.809 16.37 315.779 16.37C316.619 16.37 317.364 16.515 318.014 16.805C318.664 17.085 319.204 17.485 319.634 18.005C320.074 18.515 320.404 19.13 320.624 19.85C320.854 20.56 320.969 21.345 320.969 22.205V32H317.264V22.205C317.264 21.265 317.049 20.54 316.619 20.03C316.189 19.51 315.534 19.25 314.654 19.25C314.014 19.25 313.414 19.395 312.854 19.685C312.294 19.975 311.764 20.37 311.264 20.87V32H307.559V9.71H311.264V18.26ZM334.407 22.535C334.407 22.055 334.337 21.605 334.197 21.185C334.067 20.755 333.867 20.38 333.597 20.06C333.327 19.74 332.982 19.49 332.562 19.31C332.152 19.12 331.672 19.025 331.122 19.025C330.052 19.025 329.207 19.33 328.587 19.94C327.977 20.55 327.587 21.415 327.417 22.535H334.407ZM327.342 24.77C327.402 25.56 327.542 26.245 327.762 26.825C327.982 27.395 328.272 27.87 328.632 28.25C328.992 28.62 329.417 28.9 329.907 29.09C330.407 29.27 330.957 29.36 331.557 29.36C332.157 29.36 332.672 29.29 333.102 29.15C333.542 29.01 333.922 28.855 334.242 28.685C334.572 28.515 334.857 28.36 335.097 28.22C335.347 28.08 335.587 28.01 335.817 28.01C336.127 28.01 336.357 28.125 336.507 28.355L337.572 29.705C337.162 30.185 336.702 30.59 336.192 30.92C335.682 31.24 335.147 31.5 334.587 31.7C334.037 31.89 333.472 32.025 332.892 32.105C332.322 32.185 331.767 32.225 331.227 32.225C330.157 32.225 329.162 32.05 328.242 31.7C327.322 31.34 326.522 30.815 325.842 30.125C325.162 29.425 324.627 28.565 324.237 27.545C323.847 26.515 323.652 25.325 323.652 23.975C323.652 22.925 323.822 21.94 324.162 21.02C324.502 20.09 324.987 19.285 325.617 18.605C326.257 17.915 327.032 17.37 327.942 16.97C328.862 16.57 329.897 16.37 331.047 16.37C332.017 16.37 332.912 16.525 333.732 16.835C334.552 17.145 335.257 17.6 335.847 18.2C336.437 18.79 336.897 19.52 337.227 20.39C337.567 21.25 337.737 22.235 337.737 23.345C337.737 23.905 337.677 24.285 337.557 24.485C337.437 24.675 337.207 24.77 336.867 24.77H327.342ZM265.96 68.24C264.62 68.24 263.59 67.865 262.87 67.115C262.16 66.355 261.805 65.31 261.805 63.98V55.385H260.23C260.03 55.385 259.86 55.32 259.72 55.19C259.58 55.06 259.51 54.865 259.51 54.605V53.135L261.985 52.73L262.765 48.53C262.815 48.33 262.91 48.175 263.05 48.065C263.19 47.955 263.37 47.9 263.59 47.9H265.51V52.745H269.62V55.385H265.51V63.725C265.51 64.205 265.625 64.58 265.855 64.85C266.095 65.12 266.42 65.255 266.83 65.255C267.06 65.255 267.25 65.23 267.4 65.18C267.56 65.12 267.695 65.06 267.805 65C267.925 64.94 268.03 64.885 268.12 64.835C268.21 64.775 268.3 64.745 268.39 64.745C268.5 64.745 268.59 64.775 268.66 64.835C268.73 64.885 268.805 64.965 268.885 65.075L269.995 66.875C269.455 67.325 268.835 67.665 268.135 67.895C267.435 68.125 266.71 68.24 265.96 68.24ZM275.487 55.28C275.967 54.36 276.537 53.64 277.197 53.12C277.857 52.59 278.637 52.325 279.537 52.325C280.247 52.325 280.817 52.48 281.247 52.79L281.007 55.565C280.957 55.745 280.882 55.875 280.782 55.955C280.692 56.025 280.567 56.06 280.407 56.06C280.257 56.06 280.032 56.035 279.732 55.985C279.442 55.935 279.157 55.91 278.877 55.91C278.467 55.91 278.102 55.97 277.782 56.09C277.462 56.21 277.172 56.385 276.912 56.615C276.662 56.835 276.437 57.105 276.237 57.425C276.047 57.745 275.867 58.11 275.697 58.52V68H271.992V52.61H274.167C274.547 52.61 274.812 52.68 274.962 52.82C275.112 52.95 275.212 53.19 275.262 53.54L275.487 55.28ZM292.659 58.535C292.659 58.055 292.589 57.605 292.449 57.185C292.319 56.755 292.119 56.38 291.849 56.06C291.579 55.74 291.234 55.49 290.814 55.31C290.404 55.12 289.924 55.025 289.374 55.025C288.304 55.025 287.459 55.33 286.839 55.94C286.229 56.55 285.839 57.415 285.669 58.535H292.659ZM285.594 60.77C285.654 61.56 285.794 62.245 286.014 62.825C286.234 63.395 286.524 63.87 286.884 64.25C287.244 64.62 287.669 64.9 288.159 65.09C288.659 65.27 289.209 65.36 289.809 65.36C290.409 65.36 290.924 65.29 291.354 65.15C291.794 65.01 292.174 64.855 292.494 64.685C292.824 64.515 293.109 64.36 293.349 64.22C293.599 64.08 293.839 64.01 294.069 64.01C294.379 64.01 294.609 64.125 294.759 64.355L295.824 65.705C295.414 66.185 294.954 66.59 294.444 66.92C293.934 67.24 293.399 67.5 292.839 67.7C292.289 67.89 291.724 68.025 291.144 68.105C290.574 68.185 290.019 68.225 289.479 68.225C288.409 68.225 287.414 68.05 286.494 67.7C285.574 67.34 284.774 66.815 284.094 66.125C283.414 65.425 282.879 64.565 282.489 63.545C282.099 62.515 281.904 61.325 281.904 59.975C281.904 58.925 282.074 57.94 282.414 57.02C282.754 56.09 283.239 55.285 283.869 54.605C284.509 53.915 285.284 53.37 286.194 52.97C287.114 52.57 288.149 52.37 289.299 52.37C290.269 52.37 291.164 52.525 291.984 52.835C292.804 53.145 293.509 53.6 294.099 54.2C294.689 54.79 295.149 55.52 295.479 56.39C295.819 57.25 295.989 58.235 295.989 59.345C295.989 59.905 295.929 60.285 295.809 60.485C295.689 60.675 295.459 60.77 295.119 60.77H285.594ZM302.234 54.5C302.544 54.19 302.869 53.905 303.209 53.645C303.559 53.375 303.924 53.15 304.304 52.97C304.694 52.78 305.109 52.635 305.549 52.535C305.989 52.425 306.469 52.37 306.989 52.37C307.829 52.37 308.574 52.515 309.224 52.805C309.874 53.085 310.414 53.485 310.844 54.005C311.284 54.515 311.614 55.13 311.834 55.85C312.064 56.56 312.179 57.345 312.179 58.205V68H308.474V58.205C308.474 57.265 308.259 56.54 307.829 56.03C307.399 55.51 306.744 55.25 305.864 55.25C305.224 55.25 304.624 55.395 304.064 55.685C303.504 55.975 302.974 56.37 302.474 56.87V68H298.769V52.61H301.034C301.514 52.61 301.829 52.835 301.979 53.285L302.234 54.5ZM325.363 56.54C324.943 56.03 324.483 55.67 323.983 55.46C323.493 55.25 322.963 55.145 322.393 55.145C321.833 55.145 321.328 55.25 320.878 55.46C320.428 55.67 320.043 55.99 319.723 56.42C319.403 56.84 319.158 57.38 318.988 58.04C318.818 58.69 318.733 59.46 318.733 60.35C318.733 61.25 318.803 62.015 318.943 62.645C319.093 63.265 319.303 63.775 319.573 64.175C319.843 64.565 320.173 64.85 320.563 65.03C320.953 65.2 321.388 65.285 321.868 65.285C322.638 65.285 323.293 65.125 323.833 64.805C324.373 64.485 324.883 64.03 325.363 63.44V56.54ZM329.068 45.71V68H326.803C326.313 68 326.003 67.775 325.873 67.325L325.558 65.84C324.938 66.55 324.223 67.125 323.413 67.565C322.613 68.005 321.678 68.225 320.608 68.225C319.768 68.225 318.998 68.05 318.298 67.7C317.598 67.35 316.993 66.845 316.483 66.185C315.983 65.515 315.593 64.69 315.313 63.71C315.043 62.73 314.908 61.61 314.908 60.35C314.908 59.21 315.063 58.15 315.373 57.17C315.683 56.19 316.128 55.34 316.708 54.62C317.288 53.9 317.983 53.34 318.793 52.94C319.603 52.53 320.513 52.325 321.523 52.325C322.383 52.325 323.118 52.46 323.728 52.73C324.338 53 324.883 53.365 325.363 53.825V45.71H329.068ZM336.565 52.61V68H332.845V52.61H336.565ZM337.075 48.125C337.075 48.445 337.01 48.745 336.88 49.025C336.75 49.305 336.575 49.55 336.355 49.76C336.145 49.97 335.895 50.14 335.605 50.27C335.315 50.39 335.005 50.45 334.675 50.45C334.355 50.45 334.05 50.39 333.76 50.27C333.48 50.14 333.235 49.97 333.025 49.76C332.815 49.55 332.645 49.305 332.515 49.025C332.395 48.745 332.335 48.445 332.335 48.125C332.335 47.795 332.395 47.485 332.515 47.195C332.645 46.905 332.815 46.655 333.025 46.445C333.235 46.235 333.48 46.07 333.76 45.95C334.05 45.82 334.355 45.755 334.675 45.755C335.005 45.755 335.315 45.82 335.605 45.95C335.895 46.07 336.145 46.235 336.355 46.445C336.575 46.655 336.75 46.905 336.88 47.195C337.01 47.485 337.075 47.795 337.075 48.125ZM343.807 54.5C344.117 54.19 344.442 53.905 344.782 53.645C345.132 53.375 345.497 53.15 345.877 52.97C346.267 52.78 346.682 52.635 347.122 52.535C347.562 52.425 348.042 52.37 348.562 52.37C349.402 52.37 350.147 52.515 350.797 52.805C351.447 53.085 351.987 53.485 352.417 54.005C352.857 54.515 353.187 55.13 353.407 55.85C353.637 56.56 353.752 57.345 353.752 58.205V68H350.047V58.205C350.047 57.265 349.832 56.54 349.402 56.03C348.972 55.51 348.317 55.25 347.437 55.25C346.797 55.25 346.197 55.395 345.637 55.685C345.077 55.975 344.547 56.37 344.047 56.87V68H340.342V52.61H342.607C343.087 52.61 343.402 52.835 343.552 53.285L343.807 54.5ZM362.9 59.93C363.36 59.93 363.76 59.87 364.1 59.75C364.44 59.62 364.72 59.445 364.94 59.225C365.17 59.005 365.34 58.74 365.45 58.43C365.57 58.12 365.63 57.78 365.63 57.41C365.63 56.65 365.4 56.05 364.94 55.61C364.49 55.16 363.81 54.935 362.9 54.935C361.99 54.935 361.305 55.16 360.845 55.61C360.395 56.05 360.17 56.65 360.17 57.41C360.17 57.77 360.225 58.105 360.335 58.415C360.455 58.725 360.625 58.995 360.845 59.225C361.075 59.445 361.36 59.62 361.7 59.75C362.05 59.87 362.45 59.93 362.9 59.93ZM367.085 68.69C367.085 68.39 366.995 68.145 366.815 67.955C366.635 67.765 366.39 67.62 366.08 67.52C365.77 67.41 365.405 67.33 364.985 67.28C364.575 67.23 364.135 67.195 363.665 67.175C363.205 67.145 362.725 67.12 362.225 67.1C361.735 67.08 361.255 67.04 360.785 66.98C360.375 67.21 360.04 67.48 359.78 67.79C359.53 68.1 359.405 68.46 359.405 68.87C359.405 69.14 359.47 69.39 359.6 69.62C359.74 69.86 359.955 70.065 360.245 70.235C360.545 70.405 360.93 70.535 361.4 70.625C361.87 70.725 362.445 70.775 363.125 70.775C363.815 70.775 364.41 70.72 364.91 70.61C365.41 70.51 365.82 70.365 366.14 70.175C366.47 69.995 366.71 69.775 366.86 69.515C367.01 69.265 367.085 68.99 367.085 68.69ZM370.775 53.135V54.515C370.775 54.955 370.51 55.225 369.98 55.325L368.6 55.58C368.81 56.11 368.915 56.69 368.915 57.32C368.915 58.08 368.76 58.77 368.45 59.39C368.15 60 367.73 60.52 367.19 60.95C366.65 61.38 366.01 61.715 365.27 61.955C364.54 62.185 363.75 62.3 362.9 62.3C362.6 62.3 362.31 62.285 362.03 62.255C361.75 62.225 361.475 62.185 361.205 62.135C360.725 62.425 360.485 62.75 360.485 63.11C360.485 63.42 360.625 63.65 360.905 63.8C361.195 63.94 361.575 64.04 362.045 64.1C362.515 64.16 363.05 64.2 363.65 64.22C364.25 64.23 364.865 64.26 365.495 64.31C366.125 64.36 366.74 64.45 367.34 64.58C367.94 64.7 368.475 64.895 368.945 65.165C369.415 65.435 369.79 65.805 370.07 66.275C370.36 66.735 370.505 67.33 370.505 68.06C370.505 68.74 370.335 69.4 369.995 70.04C369.665 70.68 369.18 71.25 368.54 71.75C367.91 72.25 367.13 72.65 366.2 72.95C365.28 73.26 364.23 73.415 363.05 73.415C361.89 73.415 360.88 73.3 360.02 73.07C359.16 72.85 358.445 72.55 357.875 72.17C357.305 71.8 356.88 71.37 356.6 70.88C356.32 70.39 356.18 69.88 356.18 69.35C356.18 68.63 356.395 68.03 356.825 67.55C357.265 67.06 357.865 66.67 358.625 66.38C358.215 66.17 357.89 65.89 357.65 65.54C357.41 65.19 357.29 64.73 357.29 64.16C357.29 63.93 357.33 63.695 357.41 63.455C357.5 63.205 357.625 62.96 357.785 62.72C357.955 62.48 358.165 62.255 358.415 62.045C358.665 61.825 358.96 61.63 359.3 61.46C358.52 61.04 357.905 60.48 357.455 59.78C357.015 59.08 356.795 58.26 356.795 57.32C356.795 56.56 356.945 55.875 357.245 55.265C357.555 54.645 357.98 54.12 358.52 53.69C359.07 53.25 359.715 52.915 360.455 52.685C361.205 52.455 362.02 52.34 362.9 52.34C363.56 52.34 364.18 52.41 364.76 52.55C365.34 52.68 365.87 52.875 366.35 53.135H370.775ZM260.83 104V88.61H263.095C263.575 88.61 263.89 88.835 264.04 89.285L264.28 90.425C264.55 90.125 264.83 89.85 265.12 89.6C265.42 89.35 265.735 89.135 266.065 88.955C266.405 88.775 266.765 88.635 267.145 88.535C267.535 88.425 267.96 88.37 268.42 88.37C269.39 88.37 270.185 88.635 270.805 89.165C271.435 89.685 271.905 90.38 272.215 91.25C272.455 90.74 272.755 90.305 273.115 89.945C273.475 89.575 273.87 89.275 274.3 89.045C274.73 88.815 275.185 88.645 275.665 88.535C276.155 88.425 276.645 88.37 277.135 88.37C277.985 88.37 278.74 88.5 279.4 88.76C280.06 89.02 280.615 89.4 281.065 89.9C281.515 90.4 281.855 91.01 282.085 91.73C282.325 92.45 282.445 93.275 282.445 94.205V104H278.74V94.205C278.74 93.225 278.525 92.49 278.095 92C277.665 91.5 277.035 91.25 276.205 91.25C275.825 91.25 275.47 91.315 275.14 91.445C274.82 91.575 274.535 91.765 274.285 92.015C274.045 92.255 273.855 92.56 273.715 92.93C273.575 93.3 273.505 93.725 273.505 94.205V104H269.785V94.205C269.785 93.175 269.575 92.425 269.155 91.955C268.745 91.485 268.14 91.25 267.34 91.25C266.8 91.25 266.295 91.385 265.825 91.655C265.365 91.915 264.935 92.275 264.535 92.735V104H260.83ZM299.227 88.61V104H296.962C296.472 104 296.162 103.775 296.032 103.325L295.777 102.095C295.147 102.735 294.452 103.255 293.692 103.655C292.932 104.045 292.037 104.24 291.007 104.24C290.167 104.24 289.422 104.1 288.772 103.82C288.132 103.53 287.592 103.125 287.152 102.605C286.712 102.085 286.377 101.47 286.147 100.76C285.927 100.04 285.817 99.25 285.817 98.39V88.61H289.522V98.39C289.522 99.33 289.737 100.06 290.167 100.58C290.607 101.09 291.262 101.345 292.132 101.345C292.772 101.345 293.372 101.205 293.932 100.925C294.492 100.635 295.022 100.24 295.522 99.74V88.61H299.227ZM312.29 91.61C312.19 91.77 312.085 91.885 311.975 91.955C311.865 92.015 311.725 92.045 311.555 92.045C311.375 92.045 311.18 91.995 310.97 91.895C310.77 91.795 310.535 91.685 310.265 91.565C309.995 91.435 309.685 91.32 309.335 91.22C308.995 91.12 308.59 91.07 308.12 91.07C307.39 91.07 306.815 91.225 306.395 91.535C305.985 91.845 305.78 92.25 305.78 92.75C305.78 93.08 305.885 93.36 306.095 93.59C306.315 93.81 306.6 94.005 306.95 94.175C307.31 94.345 307.715 94.5 308.165 94.64C308.615 94.77 309.07 94.915 309.53 95.075C310 95.235 310.46 95.42 310.91 95.63C311.36 95.83 311.76 96.09 312.11 96.41C312.47 96.72 312.755 97.095 312.965 97.535C313.185 97.975 313.295 98.505 313.295 99.125C313.295 99.865 313.16 100.55 312.89 101.18C312.63 101.8 312.24 102.34 311.72 102.8C311.2 103.25 310.555 103.605 309.785 103.865C309.025 104.115 308.145 104.24 307.145 104.24C306.615 104.24 306.095 104.19 305.585 104.09C305.085 104 304.6 103.87 304.13 103.7C303.67 103.53 303.24 103.33 302.84 103.1C302.45 102.87 302.105 102.62 301.805 102.35L302.66 100.94C302.77 100.77 302.9 100.64 303.05 100.55C303.2 100.46 303.39 100.415 303.62 100.415C303.85 100.415 304.065 100.48 304.265 100.61C304.475 100.74 304.715 100.88 304.985 101.03C305.255 101.18 305.57 101.32 305.93 101.45C306.3 101.58 306.765 101.645 307.325 101.645C307.765 101.645 308.14 101.595 308.45 101.495C308.77 101.385 309.03 101.245 309.23 101.075C309.44 100.905 309.59 100.71 309.68 100.49C309.78 100.26 309.83 100.025 309.83 99.785C309.83 99.425 309.72 99.13 309.5 98.9C309.29 98.67 309.005 98.47 308.645 98.3C308.295 98.13 307.89 97.98 307.43 97.85C306.98 97.71 306.515 97.56 306.035 97.4C305.565 97.24 305.1 97.055 304.64 96.845C304.19 96.625 303.785 96.35 303.425 96.02C303.075 95.69 302.79 95.285 302.57 94.805C302.36 94.325 302.255 93.745 302.255 93.065C302.255 92.435 302.38 91.835 302.63 91.265C302.88 90.695 303.245 90.2 303.725 89.78C304.215 89.35 304.82 89.01 305.54 88.76C306.27 88.5 307.11 88.37 308.06 88.37C309.12 88.37 310.085 88.545 310.955 88.895C311.825 89.245 312.55 89.705 313.13 90.275L312.29 91.61ZM319.924 88.61V104H316.204V88.61H319.924ZM320.434 84.125C320.434 84.445 320.369 84.745 320.239 85.025C320.109 85.305 319.934 85.55 319.714 85.76C319.504 85.97 319.254 86.14 318.964 86.27C318.674 86.39 318.364 86.45 318.034 86.45C317.714 86.45 317.409 86.39 317.119 86.27C316.839 86.14 316.594 85.97 316.384 85.76C316.174 85.55 316.004 85.305 315.874 85.025C315.754 84.745 315.694 84.445 315.694 84.125C315.694 83.795 315.754 83.485 315.874 83.195C316.004 82.905 316.174 82.655 316.384 82.445C316.594 82.235 316.839 82.07 317.119 81.95C317.409 81.82 317.714 81.755 318.034 81.755C318.364 81.755 318.674 81.82 318.964 81.95C319.254 82.07 319.504 82.235 319.714 82.445C319.934 82.655 320.109 82.905 320.239 83.195C320.369 83.485 320.434 83.795 320.434 84.125ZM334.726 91.865C334.616 92.005 334.506 92.115 334.396 92.195C334.296 92.275 334.146 92.315 333.946 92.315C333.756 92.315 333.571 92.26 333.391 92.15C333.211 92.03 332.996 91.9 332.746 91.76C332.496 91.61 332.196 91.48 331.846 91.37C331.506 91.25 331.081 91.19 330.571 91.19C329.921 91.19 329.351 91.31 328.861 91.55C328.371 91.78 327.961 92.115 327.631 92.555C327.311 92.995 327.071 93.53 326.911 94.16C326.751 94.78 326.671 95.485 326.671 96.275C326.671 97.095 326.756 97.825 326.926 98.465C327.106 99.105 327.361 99.645 327.691 100.085C328.021 100.515 328.421 100.845 328.891 101.075C329.361 101.295 329.891 101.405 330.481 101.405C331.071 101.405 331.546 101.335 331.906 101.195C332.276 101.045 332.586 100.885 332.836 100.715C333.086 100.535 333.301 100.375 333.481 100.235C333.671 100.085 333.881 100.01 334.111 100.01C334.411 100.01 334.636 100.125 334.786 100.355L335.851 101.705C335.441 102.185 334.996 102.59 334.516 102.92C334.036 103.24 333.536 103.5 333.016 103.7C332.506 103.89 331.976 104.025 331.426 104.105C330.886 104.185 330.346 104.225 329.806 104.225C328.856 104.225 327.961 104.05 327.121 103.7C326.281 103.34 325.546 102.82 324.916 102.14C324.286 101.46 323.786 100.63 323.416 99.65C323.056 98.66 322.876 97.535 322.876 96.275C322.876 95.145 323.036 94.1 323.356 93.14C323.686 92.17 324.166 91.335 324.796 90.635C325.426 89.925 326.206 89.37 327.136 88.97C328.066 88.57 329.136 88.37 330.346 88.37C331.496 88.37 332.501 88.555 333.361 88.925C334.231 89.295 335.011 89.825 335.701 90.515L334.726 91.865Z" fill="white"/>
</svg>
